<svg width="33" height="35" viewBox="0 0 33 35" fill="none" xmlns="http://www.w3.org/2000/svg">
<path d="M31.6912 24.8392C31.5365 24.3986 31.3556 23.9724 31.1836 23.5774C30.9187 22.97 30.6414 22.3613 30.373 21.773L30.3518 21.7262C27.9589 16.4707 25.3905 11.1432 22.7181 5.89204L22.6047 5.66908C22.332 5.13285 22.0503 4.57839 21.761 4.0336C21.4181 3.34414 21.0019 2.69456 20.52 2.09637C19.9774 1.43993 19.2992 0.911993 18.5332 0.549778C17.7672 0.187563 16.9319 -0.000107621 16.0864 4.63002e-08C15.2409 0.000107713 14.4058 0.187991 13.6398 0.550401C12.8739 0.912812 12.1958 1.44093 11.6534 2.0975C11.172 2.69583 10.7561 3.34527 10.413 4.03438C10.1213 4.58407 9.83686 5.14367 9.5618 5.68484L9.45646 5.89199C6.78399 11.1436 4.21562 16.471 1.82271 21.7261L1.78784 21.8026C1.52419 22.3814 1.25159 22.9799 0.991157 23.5772C0.819058 23.9718 0.638441 24.3977 0.48352 24.8394C0.0398009 26.0426 -0.101593 27.3386 0.0720498 28.6109C0.256194 29.8966 0.76893 31.1114 1.55948 32.1348C2.35002 33.1582 3.39095 33.9548 4.57917 34.4457C5.47665 34.814 6.43627 35.0022 7.40468 35C7.70889 34.9999 8.01283 34.982 8.315 34.9463C9.5398 34.788 10.7211 34.3838 11.7895 33.7574C13.191 32.9588 14.5752 31.7885 16.0873 30.1162C17.5994 31.7885 18.9835 32.9588 20.385 33.7574C21.4534 34.3839 22.6348 34.788 23.8595 34.9463C24.1617 34.982 24.4657 34.9999 24.7699 35C25.7383 35.0022 26.6978 34.814 27.5952 34.4457C28.7834 33.9548 29.8244 33.1582 30.615 32.1348C31.4056 31.1114 31.9184 29.8967 32.1026 28.6109C32.276 27.3385 32.1347 26.0425 31.6912 24.8392ZM16.0873 26.6623C14.2154 24.256 13.0143 22.0213 12.5928 20.148C12.4202 19.446 12.3794 18.7175 12.4727 18.0002C12.5464 17.4744 12.7368 16.9724 13.0297 16.5318C13.3901 16.0578 13.8533 15.6739 14.3835 15.4097C14.9136 15.1457 15.4966 15.0083 16.0875 15.0083C16.6785 15.0084 17.2614 15.1458 17.7915 15.4101C18.3217 15.6742 18.7848 16.0581 19.1452 16.5321C19.4381 16.9729 19.6285 17.475 19.7022 18.0008C19.7953 18.7184 19.7544 19.4472 19.5814 20.1494C19.1595 22.0225 17.9587 24.2565 16.0873 26.6623ZM29.9163 28.2941C29.7876 29.1931 29.429 30.0425 28.8763 30.758C28.3235 31.4736 27.5957 32.0307 26.7648 32.3739C25.9247 32.7153 25.013 32.8362 24.1145 32.7255C23.1804 32.6035 22.2803 32.2918 21.4682 31.8089C20.2207 31.098 18.9579 30.0068 17.5368 28.406C19.799 25.5769 21.2117 22.9693 21.7347 20.6467C21.9701 19.67 22.0211 18.6571 21.8851 17.6613C21.7618 16.8035 21.4477 15.9852 20.9668 15.268C20.4033 14.4943 19.6682 13.8653 18.8208 13.4318C17.9732 12.9983 17.0371 12.7725 16.0875 12.7725C15.138 12.7725 14.2018 12.9982 13.3542 13.4316C12.5067 13.8649 11.7716 14.4938 11.2081 15.2675C10.7272 15.9845 10.4132 16.8026 10.2897 17.6602C10.1537 18.6557 10.2044 19.668 10.4393 20.6444C10.962 22.968 12.3748 25.5763 14.6378 28.4062C13.2167 30.0068 11.9539 31.098 10.7063 31.809C9.89426 32.2918 8.99419 32.6036 8.06014 32.7255C7.16148 32.8362 6.24978 32.7153 5.40963 32.3739C4.57881 32.0307 3.85099 31.4736 3.29825 30.7581C2.74552 30.0425 2.38705 29.1931 2.25835 28.2941C2.13456 27.3803 2.23991 26.4496 2.5647 25.5878C2.68816 25.2359 2.83264 24.8905 3.01163 24.4801C3.26484 23.8995 3.53356 23.3095 3.79348 22.7388L3.82839 22.6622C6.20791 17.4365 8.76205 12.1387 11.4199 6.91572L11.5257 6.70778C11.7963 6.17532 12.0762 5.6248 12.3585 5.09283C12.6285 4.54454 12.9554 4.02687 13.3336 3.54856C13.6687 3.138 14.0893 2.80745 14.5652 2.58053C15.0412 2.3536 15.5608 2.23591 16.0869 2.23587C16.6129 2.23582 17.1326 2.35343 17.6085 2.58028C18.0845 2.80712 18.5051 3.13761 18.8403 3.54811C19.2187 4.02606 19.5457 4.54356 19.8155 5.09182C20.0953 5.61905 20.3726 6.16463 20.641 6.6922L20.7546 6.91595C23.4124 12.1383 25.9665 17.436 28.3462 22.6626L28.3677 22.7096C28.6321 23.2899 28.9055 23.8896 29.1629 24.4803C29.3422 24.8912 29.4869 25.237 29.6101 25.5876C29.9347 26.4495 30.04 27.3802 29.9163 28.2941Z" fill="#FF385C"/>
</svg>
