<svg width="110" height="35" viewBox="0 0 110 35" fill="none" xmlns="http://www.w3.org/2000/svg">
<path d="M31.6912 24.8392C31.5365 24.3986 31.3556 23.9724 31.1836 23.5774C30.9187 22.97 30.6414 22.3613 30.373 21.773L30.3518 21.7263C27.9589 16.4707 25.3905 11.1432 22.7181 5.89204L22.6047 5.66908C22.332 5.13285 22.0503 4.57839 21.761 4.0336C21.4181 3.34414 21.0019 2.69456 20.52 2.09637C19.9774 1.43993 19.2992 0.911993 18.5332 0.549778C17.7672 0.187563 16.9319 -0.000107621 16.0864 4.63002e-08C15.2409 0.000107713 14.4058 0.18799 13.6398 0.550401C12.8739 0.912812 12.1958 1.44093 11.6534 2.0975C11.172 2.69583 10.7561 3.34527 10.413 4.03438C10.1213 4.58407 9.83686 5.14367 9.5618 5.68484L9.45646 5.89199C6.78399 11.1436 4.21562 16.471 1.82271 21.7261L1.78784 21.8026C1.52419 22.3814 1.25159 22.9799 0.991157 23.5772C0.819058 23.9718 0.638441 24.3977 0.48352 24.8394C0.0398009 26.0426 -0.101593 27.3386 0.0720498 28.6109C0.256194 29.8966 0.76893 31.1114 1.55948 32.1348C2.35002 33.1582 3.39095 33.9548 4.57917 34.4457C5.47665 34.814 6.43627 35.0022 7.40468 35C7.70889 34.9999 8.01283 34.982 8.315 34.9463C9.5398 34.788 10.7211 34.3838 11.7895 33.7574C13.191 32.9588 14.5752 31.7885 16.0873 30.1162C17.5994 31.7885 18.9835 32.9588 20.385 33.7574C21.4534 34.3839 22.6348 34.788 23.8595 34.9463C24.1617 34.982 24.4657 34.9999 24.7699 35C25.7383 35.0022 26.6978 34.814 27.5952 34.4457C28.7834 33.9548 29.8244 33.1582 30.615 32.1348C31.4056 31.1114 31.9184 29.8967 32.1026 28.6109C32.276 27.3385 32.1347 26.0425 31.6912 24.8392ZM16.0873 26.6623C14.2154 24.256 13.0143 22.0213 12.5928 20.148C12.4202 19.446 12.3794 18.7175 12.4727 18.0002C12.5464 17.4744 12.7368 16.9724 13.0297 16.5318C13.3901 16.0578 13.8533 15.6739 14.3835 15.4097C14.9136 15.1457 15.4966 15.0083 16.0875 15.0083C16.6785 15.0084 17.2614 15.1458 17.7915 15.4101C18.3217 15.6742 18.7848 16.0581 19.1452 16.5321C19.4381 16.9729 19.6285 17.475 19.7022 18.0008C19.7953 18.7184 19.7544 19.4472 19.5814 20.1494C19.1595 22.0225 17.9587 24.2565 16.0873 26.6623ZM29.9163 28.2941C29.7876 29.1931 29.429 30.0425 28.8763 30.758C28.3235 31.4736 27.5957 32.0307 26.7648 32.3739C25.9247 32.7153 25.013 32.8362 24.1145 32.7255C23.1804 32.6035 22.2803 32.2918 21.4682 31.8089C20.2207 31.098 18.9579 30.0068 17.5368 28.406C19.799 25.5769 21.2117 22.9693 21.7347 20.6467C21.9701 19.67 22.0211 18.6571 21.8851 17.6613C21.7618 16.8035 21.4477 15.9852 20.9668 15.268C20.4033 14.4943 19.6682 13.8653 18.8208 13.4318C17.9732 12.9983 17.0371 12.7725 16.0875 12.7725C15.138 12.7725 14.2018 12.9982 13.3542 13.4316C12.5067 13.8649 11.7716 14.4938 11.2081 15.2675C10.7272 15.9845 10.4132 16.8026 10.2897 17.6602C10.1537 18.6557 10.2044 19.668 10.4393 20.6444C10.962 22.968 12.3748 25.5762 14.6378 28.4062C13.2167 30.0068 11.9539 31.098 10.7063 31.809C9.89426 32.2918 8.99419 32.6036 8.06014 32.7255C7.16148 32.8362 6.24978 32.7153 5.40963 32.3739C4.57881 32.0307 3.85099 31.4736 3.29825 30.7581C2.74552 30.0425 2.38705 29.1931 2.25835 28.2941C2.13456 27.3803 2.23991 26.4496 2.5647 25.5878C2.68816 25.2359 2.83264 24.8905 3.01163 24.4801C3.26484 23.8995 3.53356 23.3095 3.79348 22.7388L3.82839 22.6622C6.20791 17.4365 8.76205 12.1387 11.4199 6.91572L11.5257 6.70778C11.7963 6.17532 12.0762 5.6248 12.3585 5.09283C12.6285 4.54454 12.9554 4.02687 13.3336 3.54856C13.6687 3.138 14.0893 2.80745 14.5652 2.58053C15.0412 2.3536 15.5608 2.23591 16.0869 2.23587C16.6129 2.23582 17.1326 2.35343 17.6085 2.58028C18.0845 2.80712 18.5051 3.13761 18.8403 3.54811C19.2187 4.02606 19.5457 4.54356 19.8155 5.09182C20.0953 5.61905 20.3726 6.16463 20.641 6.6922L20.7546 6.91595C23.4124 12.1383 25.9665 17.436 28.3462 22.6626L28.3677 22.7096C28.6321 23.2899 28.9055 23.8896 29.1629 24.4803C29.3422 24.8912 29.4869 25.237 29.6101 25.5876C29.9347 26.4495 30.04 27.3802 29.9163 28.2941Z" fill="#FF385C"/>
<path d="M44.9541 26.3808C44.0923 26.3808 43.2996 26.2056 42.5756 25.8553C41.8518 25.5049 41.2313 25.0144 40.6797 24.3837C40.1282 23.7532 39.7146 23.0174 39.4044 22.2117C39.0941 21.3708 38.9562 20.4599 38.9562 19.4789C38.9562 18.4979 39.1286 17.552 39.4388 16.7111C39.749 15.8703 40.1971 15.1345 40.7487 14.4689C41.3003 13.8382 41.9552 13.3127 42.7135 12.9624C43.4719 12.612 44.2648 12.4368 45.1609 12.4368C46.0227 12.4368 46.7811 12.612 47.4705 12.9974C48.1599 13.3478 48.7115 13.8732 49.1595 14.5389L49.263 12.8223H52.4343V26.0304H49.263L49.1595 24.1035C48.7115 24.8042 48.1254 25.3647 47.3671 25.7852C46.6776 26.1706 45.8504 26.3808 44.9541 26.3808ZM45.7815 23.2276C46.4019 23.2276 46.9534 23.0524 47.4705 22.7371C47.9531 22.3868 48.3323 21.9313 48.6425 21.3708C48.9183 20.8102 49.0561 20.1446 49.0561 19.4088C49.0561 18.673 48.9183 18.0074 48.6425 17.4468C48.3668 16.8863 47.9531 16.4309 47.4705 16.0805C46.9879 15.7301 46.4019 15.59 45.7815 15.59C45.1609 15.59 44.6094 15.7652 44.0923 16.0805C43.6098 16.4309 43.2306 16.8863 42.9204 17.4468C42.6446 18.0074 42.5067 18.673 42.5067 19.4088C42.5067 20.1446 42.6446 20.8102 42.9204 21.3708C43.1961 21.9313 43.6098 22.3868 44.0923 22.7371C44.6094 23.0524 45.1609 23.2276 45.7815 23.2276ZM57.8462 9.24864C57.8462 9.63402 57.7773 9.98439 57.6048 10.2647C57.4325 10.5449 57.1913 10.7902 56.881 10.9654C56.5707 11.1405 56.2261 11.2106 55.8814 11.2106C55.5366 11.2106 55.192 11.1405 54.8817 10.9654C54.5714 10.7902 54.3302 10.5449 54.1579 10.2647C53.9854 9.94934 53.9165 9.63402 53.9165 9.24864C53.9165 8.86326 53.9854 8.51291 54.1579 8.23262C54.3302 7.91731 54.5714 7.7071 54.8817 7.53192C55.192 7.35675 55.5366 7.28668 55.8814 7.28668C56.2261 7.28668 56.5707 7.35675 56.881 7.53192C57.1913 7.7071 57.4325 7.95235 57.6048 8.23262C57.7428 8.51291 57.8462 8.82823 57.8462 9.24864ZM54.1579 25.9954V12.7871H57.6048V25.9954H54.1579ZM66.8086 16.2556V16.2906C66.6363 16.2206 66.4294 16.1855 66.257 16.1505C66.0503 16.1155 65.8778 16.1155 65.6711 16.1155C64.7059 16.1155 63.9819 16.3958 63.4993 16.9914C62.9823 17.587 62.741 18.4278 62.741 19.5139V25.9954H59.294V12.7871H62.4652L62.5686 14.7842C62.9134 14.0835 63.327 13.5579 63.913 13.1726C64.4645 12.7871 65.1195 12.612 65.8778 12.612C66.1192 12.612 66.3604 12.647 66.5673 12.682C66.6707 12.7171 66.7396 12.7171 66.8086 12.7521V16.2556ZM68.1874 25.9954V7.35675H71.6345V14.4689C72.1171 13.8382 72.6686 13.3477 73.358 12.9624C74.0475 12.612 74.8058 12.4018 75.6676 12.4018C76.5293 12.4018 77.3221 12.5769 78.046 12.9274C78.7699 13.2777 79.3903 13.7681 79.942 14.3988C80.4935 15.0294 80.907 15.7652 81.2173 16.571C81.5276 17.4118 81.6654 18.3227 81.6654 19.3037C81.6654 20.2847 81.4931 21.2307 81.1829 22.0714C80.8726 22.9123 80.4246 23.6481 79.8729 24.3137C79.3214 24.9444 78.6665 25.4698 77.9081 25.8203C77.1498 26.1706 76.3569 26.3457 75.4608 26.3457C74.599 26.3457 73.8406 26.1706 73.1512 25.7852C72.4617 25.4348 71.9102 24.9093 71.4621 24.2436L71.3587 25.9604L68.1874 25.9954ZM74.8402 23.2276C75.4608 23.2276 76.0123 23.0524 76.5293 22.7371C77.0119 22.3868 77.391 21.9313 77.7013 21.3708C77.9771 20.8102 78.115 20.1446 78.115 19.4088C78.115 18.673 77.9771 18.0074 77.7013 17.4468C77.391 16.8863 77.0119 16.4309 76.5293 16.0805C76.0468 15.7301 75.4608 15.59 74.8402 15.59C74.2198 15.59 73.6683 15.7652 73.1512 16.0805C72.6686 16.4309 72.2894 16.8863 71.9791 17.4468C71.7034 18.0074 71.5656 18.673 71.5656 19.4088C71.5656 20.1446 71.7034 20.8102 71.9791 21.3708C72.2549 21.9313 72.6686 22.3868 73.1512 22.7371C73.6683 23.0524 74.2198 23.2276 74.8402 23.2276ZM82.9754 25.9954V12.7871H86.1466L86.25 14.5039C86.6292 13.8732 87.1463 13.3828 87.8012 12.9974C88.4562 12.612 89.2145 12.4368 90.0763 12.4368C91.0415 12.4368 91.8688 12.682 92.5582 13.1376C93.282 13.593 93.8337 14.2587 94.2128 15.0995C94.592 15.9403 94.7988 16.9563 94.7988 18.1125V26.0304H91.3518V18.5679C91.3518 17.6571 91.1449 16.9213 90.7312 16.3958C90.3177 15.8703 89.766 15.59 89.0422 15.59C88.5251 15.59 88.077 15.6951 87.6633 15.9403C87.2841 16.1855 86.974 16.5009 86.7326 16.9564C86.4914 17.3767 86.388 17.9023 86.388 18.4278V25.9954H82.9754ZM96.5223 25.9954V7.35675H99.9694V14.4689C100.452 13.8382 101.004 13.3477 101.693 12.9624C102.382 12.612 103.141 12.4018 104.003 12.4018C104.864 12.4018 105.657 12.5769 106.381 12.9274C107.105 13.2777 107.725 13.7681 108.277 14.3988C108.829 15.0294 109.242 15.7652 109.552 16.571C109.863 17.4118 110 18.3227 110 19.3037C110 20.2847 109.829 21.2307 109.518 22.0714C109.207 22.9123 108.76 23.6481 108.208 24.3137C107.656 24.9444 107.001 25.4698 106.243 25.8203C105.485 26.1706 104.692 26.3457 103.796 26.3457C102.934 26.3457 102.176 26.1706 101.486 25.7852C100.797 25.4348 100.245 24.9093 99.7971 24.2436L99.6936 25.9604L96.5223 25.9954ZM103.21 23.2276C103.83 23.2276 104.382 23.0524 104.899 22.7371C105.381 22.3868 105.76 21.9313 106.071 21.3708C106.346 20.8102 106.484 20.1446 106.484 19.4088C106.484 18.673 106.346 18.0074 106.071 17.4468C105.795 16.8863 105.381 16.4309 104.899 16.0805C104.416 15.7301 103.83 15.59 103.21 15.59C102.589 15.59 102.038 15.7652 101.521 16.0805C101.038 16.4309 100.659 16.8863 100.349 17.4468C100.038 18.0074 99.9349 18.673 99.9349 19.4088C99.9349 20.1446 100.073 20.8102 100.349 21.3708C100.624 21.9313 101.038 22.3868 101.521 22.7371C102.038 23.0524 102.555 23.2276 103.21 23.2276Z" fill="#FF385C"/>
</svg>
